# xmcd
#
# Track frame offsets:
#	150
#	13540
#	28323
#	47686
#	60496
#	76019
#	95469
#	111062
#	128140
#	141580
#	156435
#	175793
#	188606
#	204104
#	223554
#	239147
#
# Disc length: 3413 seconds
#
# Revision: 1
# Processed by: cddbd v1.5.2PL0 Copyright (c) Steve Scherf et al.
# Submitted via: audiograbber 1.83.01
#
DISCID=d80d5310
DTITLE=Various Artist - ST 134
DYEAR=1900
DGENRE=Country
TTITLE0=Vince Gill - What The Cowgirls Do w/ vocals
TTITLE1=Alan Jackson - Summertime Blues w/ vocals
TTITLE2=John Michael Montgomery - I Swear w/ vocals
TTITLE3=Toby Keith - A Little Less Talk And A Lot More Action w/ vocals
TTITLE4=George Strait - I Cross My Heart w/ vocals
TTITLE5=Garth Brooks - We Shall Be Free w/ vocals
TTITLE6=Billy Ray Cyrus - She's Not Cryin' Anymore w/ vocals
TTITLE7=Joe Diffie - Prop Me Up Beside The Jukebox w/ vocals
TTITLE8=Vince Gill - What The Cowgirls Do
TTITLE9=Alan Jackson - Summertime Blues
TTITLE10=John Michael Montgomery - I Swear
TTITLE11=Toby Keith - A Little Less Talk And A Lot More Action
TTITLE12=George Strait - I Cross My Heart
TTITLE13=Garth Brooks - We Shall Be Free
TTITLE14=Billy Ray Cyrus - She's Not Cryin' Anymore
TTITLE15=Joe Diffie - Prop Me Up Beside The Jukebox
EXTD=
EXTT0=
EXTT1=
EXTT2=
EXTT3=
EXTT4=
EXTT5=
EXTT6=
EXTT7=
EXTT8=
EXTT9=
EXTT10=
EXTT11=
EXTT12=
EXTT13=
EXTT14=
EXTT15=
PLAYORDER=
